<?xml version="1.0" encoding="UTF-8"?>
<svg version="1.1" xmlns="http://www.w3.org/2000/svg" width="205" height="136">
<path d="M0 0 C1.31668671 -0.00855011 1.31668671 -0.00855011 2.65997314 -0.01727295 C4.52965077 -0.02674816 6.39934528 -0.03326687 8.26904297 -0.03710938 C11.0872285 -0.04669341 13.90464598 -0.07763953 16.72265625 -0.109375 C33.34588793 -0.20858484 48.31244212 1.30703366 61.015625 13.265625 C63.89576635 16.13988851 64.8719021 18.15848834 65.390625 22.203125 C64.90851563 22.51765625 64.42640625 22.8321875 63.9296875 23.15625 C62.98222656 23.79820313 62.98222656 23.79820313 62.015625 24.453125 C61.38914062 24.87078125 60.76265625 25.2884375 60.1171875 25.71875 C58.10056817 27.45249513 57.26559024 28.69275354 56.390625 31.203125 C56.40015226 33.67023091 56.40015226 33.67023091 56.828125 36.203125 C57.31696087 39.57866532 57.35359606 41.9344486 56.390625 45.203125 C55.76097795 51.49959549 57.16546998 56.80719256 60.390625 62.203125 C62.85582753 64.57894041 65.45520818 66.45042466 68.390625 68.203125 C65.34093843 77.11392795 57.95365551 83.63404057 49.83203125 88.0234375 C48.62353516 88.60738281 48.62353516 88.60738281 47.390625 89.203125 C46.38322266 89.69425781 46.38322266 89.69425781 45.35546875 90.1953125 C37.90678249 93.2092318 29.33171475 93.16863601 21.390625 93.203125 C20.730625 92.873125 20.070625 92.543125 19.390625 92.203125 C19.390625 85.273125 19.390625 78.343125 19.390625 71.203125 C23.7156756 70.58526063 27.6514198 70.10978029 31.953125 69.890625 C38.34696615 69.31334249 41.52278059 67.02753117 46.078125 62.578125 C50.23685456 57.22157365 51.75047913 50.77398316 51.328125 44.078125 C50.40247602 37.80537606 48.26012021 32.57760788 43.453125 28.328125 C37.40925504 24.13441931 32.51664168 23.88905449 25.34765625 23.82421875 C24.38284836 23.80722427 23.41804047 23.7902298 22.42399597 23.77272034 C19.3504383 23.71970678 16.27689352 23.67933261 13.203125 23.640625 C10.11871183 23.59670253 7.03440313 23.55003892 3.95011902 23.49781799 C2.03264734 23.46584926 0.11508302 23.43896279 -1.80253601 23.41758728 C-3.09947136 23.39735252 -3.09947136 23.39735252 -4.42260742 23.37670898 C-5.18474045 23.36719711 -5.94687347 23.35768524 -6.73210144 23.34788513 C-8.609375 23.203125 -8.609375 23.203125 -10.609375 22.203125 C-10.47118968 18.72360977 -10.32254899 15.24462005 -10.171875 11.765625 C-10.13255859 10.77240234 -10.09324219 9.77917969 -10.05273438 8.75585938 C-10.01083984 7.81162109 -9.96894531 6.86738281 -9.92578125 5.89453125 C-9.88912354 5.01998291 -9.85246582 4.14543457 -9.81469727 3.24438477 C-9.32028406 -1.67094078 -3.8613777 0.01928632 0 0 Z " fill="#2E90CF" transform="translate(51.609375,21.796875)"/>
<path d="M0 0 C2.734375 0.015625 2.734375 0.015625 5.125 0.375 C7.30682341 2.81350852 8.125 4.1071149 8.125 7.375 C11.71527947 8.16311013 14.00013035 8.4039876 17.625 7.5625 C21.125 7.375 21.125 7.375 22.90234375 8.640625 C24.39234844 10.14114737 25.76799083 11.75320855 27.125 13.375 C25.72101721 17.47610762 23.75412962 20.35589159 21 23.6875 C20.27554688 24.57050781 19.55109375 25.45351562 18.8046875 26.36328125 C18.25039062 27.02714844 17.69609375 27.69101563 17.125 28.375 C14.02360506 27.19326158 11.22585308 25.8748639 8.375 24.1875 C3.83259892 21.85584926 -0.0006411 22.191805 -4.875 23.375 C-5.535 23.705 -6.195 24.035 -6.875 24.375 C-6.875 26.355 -6.875 28.335 -6.875 30.375 C-5.72 30.74625 -4.565 31.1175 -3.375 31.5 C-2.15683594 31.91572266 -2.15683594 31.91572266 -0.9140625 32.33984375 C0.72290205 32.89742165 2.36155015 33.4506004 4.00878906 33.97705078 C20.67863851 39.32920302 20.67863851 39.32920302 25.125 47.375 C26.64141265 52.09676394 26.43023202 56.78779349 25.5 61.625 C24.78721659 64.58552911 24.78721659 64.58552911 27.125 67.375 C27.02772181 70.29334567 25.8818148 71.73977779 24.25 74.1875 C19.55132143 77.476575 15.56867411 76.26036407 10.125 75.375 C9.465 75.375 8.805 75.375 8.125 75.375 C7.815625 76.509375 7.50625 77.64375 7.1875 78.8125 C6.125 82.375 6.125 82.375 5.125 83.375 C3.43891034 83.44705511 1.74999341 83.45886068 0.0625 83.4375 C-1.31615234 83.42396484 -1.31615234 83.42396484 -2.72265625 83.41015625 C-3.78806641 83.39275391 -3.78806641 83.39275391 -4.875 83.375 C-7.875 77.625 -7.875 77.625 -7.875 75.375 C-11.44739537 75.30355209 -14.52714882 75.28455869 -18 76.1875 C-20.875 76.375 -20.875 76.375 -23.8125 74.25 C-25.875 71.375 -25.875 71.375 -25.7890625 69.02734375 C-24.6088733 65.60277766 -22.7947684 63.68461451 -20.3125 61.0625 C-19.48621094 60.17949219 -18.65992187 59.29648438 -17.80859375 58.38671875 C-17.17050781 57.72285156 -16.53242187 57.05898437 -15.875 56.375 C-14.98361328 56.808125 -14.98361328 56.808125 -14.07421875 57.25 C-7.68538819 60.11156019 -1.88659755 61.42187047 5.125 60.375 C5.785 59.715 6.445 59.055 7.125 58.375 C7.125 57.055 7.125 55.735 7.125 54.375 C1.80657746 52.16291275 -3.48488009 50.1699727 -9 48.5 C-15.72103235 46.28560582 -20.73930939 43.37831492 -24.875 37.5625 C-26.57790551 32.13448868 -26.16984879 26.94205151 -25.3125 21.375 C-25.168125 20.385 -25.02375 19.395 -24.875 18.375 C-25.205 18.045 -25.535 17.715 -25.875 17.375 C-26.46434359 13.83893843 -25.98174174 12.53867067 -24 9.5 C-19.993961 6.77589348 -17.89747078 7.25233958 -13.27734375 8.078125 C-10.81430611 8.38250038 -9.21616898 8.13195995 -6.875 7.375 C-6.730625 6.405625 -6.58625 5.43625 -6.4375 4.4375 C-5.5789205 -0.23698837 -4.47677621 0.16869012 0 0 Z " fill="#F37653" transform="translate(136.875,40.625)"/>
<path d="M0 0 C5.3161319 -0.07501597 10.63194537 -0.12900455 15.94848633 -0.16479492 C17.75127541 -0.17973916 19.55402906 -0.20010204 21.35668945 -0.22631836 C34.10021511 -0.40680151 46.79630858 -0.52663423 58.25 5.9375 C59.14203125 6.42089844 60.0340625 6.90429688 60.953125 7.40234375 C63.33896774 9.26457596 63.46706894 10.1175879 64 13 C65.2684375 14.2375 65.2684375 14.2375 66.5625 15.5 C69 18 69 18 69 22 C67.57421875 23.2734375 67.57421875 23.2734375 65.6875 24.375 C62.08606897 26.72502469 60.61801632 28.9549592 59 33 C58.505 33.99 58.505 33.99 58 35 C57.49210937 34.39671875 56.98421875 33.7934375 56.4609375 33.171875 C55.77257812 32.37265625 55.08421875 31.5734375 54.375 30.75 C53.70210937 29.96109375 53.02921875 29.1721875 52.3359375 28.359375 C47.45109563 23.42552134 43.11070138 21.34950916 36.25 20.75 C35.12295654 20.63615967 35.12295654 20.63615967 33.97314453 20.52001953 C22.68999106 19.52821752 11.31337811 19.82910305 0 20 C-0.71923776 16.4813073 -1.30487959 13.01028022 -1.6875 9.4375 C-1.79449219 8.50808594 -1.90148438 7.57867187 -2.01171875 6.62109375 C-1.998971 3.76984676 -1.33844098 2.45942209 0 0 Z " fill="#2C91D0" transform="translate(45,22)"/>
<path d="M0 0 C0.87454834 0.00523682 1.74909668 0.01047363 2.65014648 0.01586914 C3.59438477 0.0190918 4.53862305 0.02231445 5.51147461 0.02563477 C6.50469727 0.03401367 7.49791992 0.04239258 8.52124023 0.05102539 C9.51833008 0.05553711 10.51541992 0.06004883 11.54272461 0.06469727 C14.01478872 0.07652532 16.48673541 0.0930069 18.95874023 0.11352539 C19.1356237 7.38023411 19.30158435 14.64710508 19.45351601 21.91438103 C19.52440553 25.28869357 19.59908755 28.66283409 19.68237305 32.03686523 C19.77620521 35.91383951 19.8570593 39.79089667 19.93530273 43.66821289 C19.96749908 44.88282196 19.99969543 46.09743103 20.03286743 47.34884644 C20.06312515 49.03036301 20.06312515 49.03036301 20.09399414 50.74584961 C20.11620026 51.73624237 20.13840637 52.72663513 20.1612854 53.74703979 C19.95874023 56.11352539 19.95874023 56.11352539 17.95874023 58.11352539 C16.12695313 58.35644531 16.12695313 58.35644531 13.93139648 58.34399414 C13.13926758 58.34206055 12.34713867 58.34012695 11.53100586 58.33813477 C10.7027832 58.32588867 9.87456055 58.31364258 9.02124023 58.30102539 C8.19688477 58.30038086 7.3725293 58.29973633 6.52319336 58.29907227 C3.0138558 58.27341505 0.31918722 58.23367439 -3.04125977 57.11352539 C-3.06438892 49.82930991 -3.08217778 42.54510229 -3.09307194 35.26085758 C-3.09829951 31.87880726 -3.10539487 28.49678199 -3.11669922 25.11474609 C-3.12960243 21.23022762 -3.134489 17.34571942 -3.13891602 13.46118164 C-3.1440773 12.24141129 -3.14923859 11.02164093 -3.15455627 9.76490784 C-3.15463181 8.64382126 -3.15470734 7.52273468 -3.15478516 6.36767578 C-3.15700577 5.37506241 -3.15922638 4.38244904 -3.16151428 3.35975647 C-3.0062807 0.46015222 -2.89721909 0.16112987 0 0 Z " fill="#2C91CE" transform="translate(45.041259765625,56.886474609375)"/>
<path d="M0 0 C0.66 0.33 1.32 0.66 2 1 C1.814375 1.804375 1.62875 2.60875 1.4375 3.4375 C0.98102991 7.15447071 1.24337804 10.26475803 1.74609375 13.94921875 C2 16 2 16 2 19 C3.04003174 18.98428955 3.04003174 18.98428955 4.10107422 18.96826172 C45.06429308 18.43328167 45.06429308 18.43328167 53.296875 26.1796875 C53.85890625 26.78039062 54.4209375 27.38109375 55 28 C55.54140625 28.51820312 56.0828125 29.03640625 56.640625 29.5703125 C57.79416204 30.67948273 58.90432536 31.83363668 60 33 C60.29132813 32.46890625 60.58265625 31.9378125 60.8828125 31.390625 C63.70125032 26.53369441 66.08937654 23.7408131 71 21 C69.73058503 17.08597051 68.48832306 15.20927127 65 13 C65.33 12.01 65.66 11.02 66 10 C72.70459519 16.07439825 72.70459519 16.07439825 73.9375 19.9375 C73.958125 20.618125 73.97875 21.29875 74 22 C73.51789063 22.31453125 73.03578125 22.6290625 72.5390625 22.953125 C71.59160156 23.59507813 71.59160156 23.59507813 70.625 24.25 C69.99851562 24.66765625 69.37203125 25.0853125 68.7265625 25.515625 C66.70994317 27.24937013 65.87496524 28.48962854 65 31 C65.00952726 33.46710591 65.00952726 33.46710591 65.4375 36 C65.92704691 39.38045022 65.94724593 41.72523551 65 45 C64.68650255 50.4339558 65.545232 54.817389 67 60 C66.01 60 65.02 60 64 60 C63.67 59.01 63.34 58.02 63 57 C61.515 56.505 61.515 56.505 60 56 C59.87625 56.556875 59.7525 57.11375 59.625 57.6875 C58.94023145 60.22114364 58.00866237 62.57921032 57 65 C56.01 64.34 55.02 63.68 54 63 C54.61875 62.175 55.2375 61.35 55.875 60.5 C59.83905362 54.46222438 60.47234436 48.46978366 59.53515625 41.45703125 C58.01066547 34.45772686 54.82991382 30.04524632 49 26 C44.17794765 23.40842496 39.29536339 23.6693732 33.95703125 23.62109375 C32.99222336 23.60409927 32.02741547 23.5871048 31.03337097 23.56959534 C27.9598133 23.51658178 24.88626852 23.47620761 21.8125 23.4375 C18.72808683 23.39357753 15.64377813 23.34691392 12.55949402 23.29469299 C10.64202234 23.26272426 8.72445802 23.23583779 6.80683899 23.21446228 C5.50990364 23.19422752 5.50990364 23.19422752 4.18676758 23.17358398 C3.42463455 23.16407211 2.66250153 23.15456024 1.87727356 23.14476013 C0 23 0 23 -2 22 C-1.86181468 18.52048477 -1.71317399 15.04149505 -1.5625 11.5625 C-1.52318359 10.56927734 -1.48386719 9.57605469 -1.44335938 8.55273438 C-1.40146484 7.60849609 -1.35957031 6.66425781 -1.31640625 5.69140625 C-1.27974854 4.81685791 -1.24309082 3.94230957 -1.20532227 3.04125977 C-1 1 -1 1 0 0 Z " fill="#3F90BB" transform="translate(43,22)"/>
<path d="M0 0 C6.93 0 13.86 0 21 0 C21 16.5 21 33 21 50 C20.67 50 20.34 50 20 50 C20 34.49 20 18.98 20 3 C13.4 3 6.8 3 0 3 C0 20.49 0 37.98 0 56 C0.99 56 1.98 56 3 56 C2.67 56.66 2.34 57.32 2 58 C1.01 57.67 0.02 57.34 -1 57 C-1.02312916 49.71578452 -1.04091801 42.4315769 -1.05181217 35.14733219 C-1.05703975 31.76528187 -1.06413511 28.3832566 -1.07543945 25.0012207 C-1.08834267 21.11670223 -1.09322924 17.23219403 -1.09765625 13.34765625 C-1.10281754 12.12788589 -1.10797882 10.90811554 -1.11329651 9.65138245 C-1.11337204 8.53029587 -1.11344757 7.40920929 -1.11352539 6.25415039 C-1.115746 5.26153702 -1.11796661 4.26892365 -1.12025452 3.24623108 C-1 1 -1 1 0 0 Z " fill="#3C86B2" transform="translate(43,57)"/>
<path d="M0 0 C1.5778125 0.4021875 1.5778125 0.4021875 3.1875 0.8125 C0.1875 1.8125 0.1875 1.8125 -1.9375 2.1875 C-2.55625 2.39375 -3.175 2.6 -3.8125 2.8125 C-4.1425 3.8025 -4.4725 4.7925 -4.8125 5.8125 C-3.8225 6.1425 -2.8325 6.4725 -1.8125 6.8125 C-2.1425 7.4725 -2.4725 8.1325 -2.8125 8.8125 C-2.1525 8.8125 -1.4925 8.8125 -0.8125 8.8125 C-0.4825 10.1325 -0.1525 11.4525 0.1875 12.8125 C-0.43125 13.06 -1.05 13.3075 -1.6875 13.5625 C-4.25503276 15.07281339 -4.71733234 16.07942673 -5.8125 18.8125 C-6.12587208 21.03634795 -6.12587208 21.03634795 -6.0625 23.3125 C-6.06765625 24.0653125 -6.0728125 24.818125 -6.078125 25.59375 C-5.78500404 28.0421721 -5.03066769 29.68554054 -3.8125 31.8125 C-1.8325 31.8125 0.1475 31.8125 2.1875 31.8125 C2.8475 34.1225 3.5075 36.4325 4.1875 38.8125 C-0.99977207 37.03400672 -4.53350633 34.70893889 -7.625 30.125 C-9.58050374 24.67017376 -9.12142275 19.47093842 -8.25 13.8125 C-8.105625 12.8225 -7.96125 11.8325 -7.8125 10.8125 C-8.1425 10.4825 -8.4725 10.1525 -8.8125 9.8125 C-9.1875 7.5625 -9.1875 7.5625 -8.8125 4.8125 C-5.98388619 0.86958378 -4.94310637 -0.24310359 0 0 Z " fill="#E38069" transform="translate(119.8125,48.1875)"/>
<path d="M0 0 C4.24426822 0.49028616 6.01792037 1.55455549 8.75 4.8125 C9.34296875 5.49957031 9.9359375 6.18664062 10.546875 6.89453125 C13.41457145 11.04960755 13.17066368 15.05075326 13 20 C12.79375 21.0725 12.5875 22.145 12.375 23.25 C11.66221659 26.21052911 11.66221659 26.21052911 14 29 C13.89570746 32.12877617 12.73421899 33.33222626 10.75 35.8125 C8 38 8 38 5.5625 37.875 C4.2940625 37.441875 4.2940625 37.441875 3 37 C1.00102872 36.66055205 -0.99875639 36.32578384 -3 36 C-2.67 35.34 -2.34 34.68 -2 34 C1.62528568 33.79859524 3.86501708 34.14223235 7 36 C8.66621425 34.8354799 8.66621425 34.8354799 10 33 C9.79681318 30.64184541 9.79681318 30.64184541 9 28 C7.42322177 21.11951319 8.74819934 14.87973089 10 8 C9.360625 7.87625 8.72125 7.7525 8.0625 7.625 C7.381875 7.41875 6.70125 7.2125 6 7 C5.33333333 5.66666667 4.66666667 4.33333333 4 3 C1.94999129 2.19471111 1.94999129 2.19471111 0 2 C0 1.34 0 0.68 0 0 Z " fill="#DF8972" transform="translate(150,79)"/>
<path d="M0 0 C0.99 0.33 1.98 0.66 3 1 C2.34 7.27 1.68 13.54 1 20 C6.61 20 12.22 20 18 20 C18 19.34 18 18.68 18 18 C18.94875 17.896875 19.8975 17.79375 20.875 17.6875 C24.29107501 17.31460705 24.29107501 17.31460705 26 14 C29.625 13.8125 29.625 13.8125 33 14 C33 13.34 33 12.68 33 12 C36.58011675 8.01072705 40.23942807 5.38028597 45 3 C41.64543689 10.84478561 33.75877217 15.52314087 26.359375 19.08984375 C21.14949875 21.09961389 15.83174525 21.30667203 10.3125 21.625 C9.54099609 21.6765625 8.76949219 21.728125 7.97460938 21.78125 C2.24325478 22.12162739 2.24325478 22.12162739 0 21 C0 14.07 0 7.14 0 0 Z " fill="#4188B4" transform="translate(71,93)"/>
<path d="M0 0 C1.32 0.99 2.64 1.98 4 3 C2.59601721 7.10110762 0.62912962 9.98089159 -2.125 13.3125 C-2.84945312 14.19550781 -3.57390625 15.07851562 -4.3203125 15.98828125 C-4.87460938 16.65214844 -5.42890625 17.31601563 -6 18 C-9.08256765 16.82947173 -11.81715067 15.52565917 -14.625 13.8125 C-19.71133943 11.17189083 -24.51982529 12.07320575 -30 13 C-29.34 11.68 -28.68 10.36 -28 9 C-22.76869562 8.79965217 -17.93284913 8.89056141 -12.8125 10.0625 C-8.44670716 11.01816174 -5.31778847 11.25935497 -1 10 C0.6824493 8.38558027 0.6824493 8.38558027 1 6 C0.69196545 2.81477796 0.69196545 2.81477796 0 0 Z " fill="#E8795B" transform="translate(160,51)"/>
<path d="M0 0 C34.2580949 -0.74799334 34.2580949 -0.74799334 50 9 C46.22134307 10.25955231 44.96588214 9.48087189 41.3125 8.0625 C40.31863281 7.68222656 39.32476562 7.30195313 38.30078125 6.91015625 C37.54152344 6.60980469 36.78226563 6.30945313 36 6 C36 5.01 36 4.02 36 3 C24.78 3 13.56 3 2 3 C2 2.34 2 1.68 2 1 C1.34 0.67 0.68 0.34 0 0 Z " fill="#3E94BB" transform="translate(58,22)"/>
<path d="M0 0 C1.18109676 2.36219353 1.35238516 4.25010852 1.625 6.875 C1.72039062 7.73867188 1.81578125 8.60234375 1.9140625 9.4921875 C1.99772286 11.93354885 1.66200868 13.67088919 1 16 C0.68650255 21.4339558 1.545232 25.817389 3 31 C2.01 31 1.02 31 0 31 C-0.33 30.01 -0.66 29.02 -1 28 C-1.99 27.67 -2.98 27.34 -4 27 C-4.12375 27.556875 -4.2475 28.11375 -4.375 28.6875 C-5.05976855 31.22114364 -5.99133763 33.57921032 -7 36 C-7.99 35.34 -8.98 34.68 -10 34 C-9.401875 33.236875 -8.80375 32.47375 -8.1875 31.6875 C-5.63550928 27.91812855 -4.7427738 23.87662034 -3.7109375 19.48828125 C-3 17 -3 17 -1 14 C-0.79520818 10.82917115 -0.79520818 10.82917115 -0.9375 7.375 C-0.99143113 5.25058232 -1.02048901 3.12500335 -1 1 C-0.67 0.67 -0.34 0.34 0 0 Z " fill="#3581BA" transform="translate(107,51)"/>
<path d="M0 0 C0 3.20395416 -0.74335022 5.09399739 -2 8 C-1.33613281 8.06058594 -0.67226562 8.12117188 0.01171875 8.18359375 C12.21478873 9.3415493 12.21478873 9.3415493 17 12 C17 14.31 17 16.62 17 19 C14.64046906 16.64046906 14.50858587 15.22104383 14 12 C10.42760463 11.92855209 7.34785118 11.90955869 3.875 12.8125 C1 13 1 13 -1.9375 10.875 C-4 8 -4 8 -4 5.375 C-2.97818776 2.94819593 -2.01459133 1.66422762 0 0 Z " fill="#D98771" transform="translate(115,104)"/>
<path d="M0 0 C0.33 0 0.66 0 1 0 C0.96519531 1.77117188 0.96519531 1.77117188 0.9296875 3.578125 C0.91092503 5.13541033 0.89272534 6.69270252 0.875 8.25 C0.85824219 9.02730469 0.84148437 9.80460937 0.82421875 10.60546875 C0.74031699 16.08306936 0.74031699 16.08306936 3 21 C4.98 21 6.96 21 9 21 C9.66 23.31 10.32 25.62 11 28 C5.81272793 26.22150672 2.27899367 23.89643889 -0.8125 19.3125 C-3.2059788 12.63595388 -2.24096167 6.58282492 0 0 Z " fill="#CE8A77" transform="translate(113,59)"/>
<path d="M0 0 C0.99 0.33 1.98 0.66 3 1 C3 2.98 3 4.96 3 7 C3.52207031 7.17015625 4.04414063 7.3403125 4.58203125 7.515625 C10.7682136 9.55240658 16.88858108 11.74962705 23 14 C18.79623226 15.3125301 16.20056865 14.23120116 12 13 C8.70780572 12.83152909 8.70780572 12.83152909 6 13 C5.67 13.66 5.34 14.32 5 15 C4.01 14.67 3.02 14.34 2 14 C2.04125 13.21625 2.0825 12.4325 2.125 11.625 C2.28728734 8.83883881 2.28728734 8.83883881 0 7 C-0.125 3.375 -0.125 3.375 0 0 Z " fill="#E88A6F" transform="translate(127,64)"/>
<path d="M0 0 C2.06277107 0.14194764 4.12521031 0.28872216 6.1875 0.4375 C7.91033203 0.55931641 7.91033203 0.55931641 9.66796875 0.68359375 C14.21503079 1.11537807 17.16593443 1.44395629 21 4 C20.67 4.66 20.34 5.32 20 6 C20.66 6.33 21.32 6.66 22 7 C20 8 20 8 17.96875 7.328125 C17.1540625 6.97234375 16.339375 6.6165625 15.5 6.25 C10.42337624 4.11870606 5.29666254 2.48757331 0 1 C0 0.67 0 0.34 0 0 Z " fill="#E6876D" transform="translate(124,87)"/>
<path d="M0 0 C1.32 0.99 2.64 1.98 4 3 C2.59601721 7.10110762 0.62912962 9.98089159 -2.125 13.3125 C-2.84945312 14.19550781 -3.57390625 15.07851562 -4.3203125 15.98828125 C-4.87460938 16.65214844 -5.42890625 17.31601563 -6 18 C-10.875 16.25 -10.875 16.25 -12 14 C-9.36 14 -6.72 14 -4 14 C-4 12.68 -4 11.36 -4 10 C-3.01 10 -2.02 10 -1 10 C0.80411967 7.24075815 1.0127245 6.11027897 0.625 2.75 C0.41875 1.8425 0.2125 0.935 0 0 Z " fill="#DA8874" transform="translate(160,51)"/>
<path d="M0 0 C2.35171131 0.59861742 4.6859378 1.26924352 7 2 C7.33 2.66 7.66 3.32 8 4 C4.04 4.66 0.08 5.32 -4 6 C-4 7.32 -4 8.64 -4 10 C-4.66 10 -5.32 10 -6 10 C-6.33 10.99 -6.66 11.98 -7 13 C-7.74609375 11.296875 -7.74609375 11.296875 -8 9 C-6.34765625 6.640625 -6.34765625 6.640625 -4.0625 4.25 C-3.31097656 3.45078125 -2.55945313 2.6515625 -1.78515625 1.828125 C-1.19605469 1.22484375 -0.60695313 0.6215625 0 0 Z " fill="#EA7B5A" transform="translate(121,99)"/>
<path d="M0 0 C8.50067035 0.17777067 16.3638427 1.66885305 22.78125 7.6640625 C23.1834375 8.10492188 23.585625 8.54578125 24 9 C19.15311808 8.21824485 14.6233633 6.60155722 10 5 C10 4.01 10 3.02 10 2 C7.03 2 4.06 2 1 2 C0.67 1.34 0.34 0.68 0 0 Z " fill="#3A8CB6" transform="translate(84,23)"/>
<path d="M0 0 C0.99 0.33 1.98 0.66 3 1 C2.34 1 1.68 1 1 1 C0.690625 2.134375 0.38125 3.26875 0.0625 4.4375 C-1 8 -1 8 -2 9 C-3.68608966 9.07205511 -5.37500659 9.08386068 -7.0625 9.0625 C-7.98160156 9.05347656 -8.90070313 9.04445313 -9.84765625 9.03515625 C-10.55792969 9.02355469 -11.26820313 9.01195313 -12 9 C-12 8.67 -12 8.34 -12 8 C-10.35 8 -8.7 8 -7 8 C-6.67 7.01 -6.34 6.02 -6 5 C-3.125 2.25 -3.125 2.25 0 0 Z " fill="#E0846A" transform="translate(144,115)"/>
<path d="M0 0 C3.55231746 7.10463493 1.69417885 15.63522251 0 23 C-0.33 22.34 -0.66 21.68 -1 21 C-1.66 21 -2.32 21 -3 21 C-3.33 22.32 -3.66 23.64 -4 25 C-3.25 17.375 -3.25 17.375 -1 14 C-0.79520818 10.82917115 -0.79520818 10.82917115 -0.9375 7.375 C-0.99143113 5.25058232 -1.02048901 3.12500335 -1 1 C-0.67 0.67 -0.34 0.34 0 0 Z " fill="#4086AA" transform="translate(107,51)"/>
<path d="M0 0 C1.12894876 0.93274109 2.25300876 1.87140122 3.375 2.8125 C4.00148438 3.33457031 4.62796875 3.85664062 5.2734375 4.39453125 C7 6 7 6 9 9 C9 10.9375 9 10.9375 8 13 C5.0625 15.125 5.0625 15.125 2 17 C1.34 17.66 0.68 18.32 0 19 C0.1875 16.6875 0.1875 16.6875 1 14 C3.5625 12.1875 3.5625 12.1875 6 11 C4.69600908 6.97936134 3.35202912 5.45815469 0 3 C0 2.01 0 1.02 0 0 Z " fill="#4188AF" transform="translate(108,32)"/>
<path d="M0 0 C1.37478516 0.01740234 1.37478516 0.01740234 2.77734375 0.03515625 C3.69644531 0.04417969 4.61554688 0.05320313 5.5625 0.0625 C6.27277344 0.07410156 6.98304688 0.08570313 7.71484375 0.09765625 C7.71484375 0.42765625 7.71484375 0.75765625 7.71484375 1.09765625 C3.25984375 1.59265625 3.25984375 1.59265625 -1.28515625 2.09765625 C-1.40890625 3.21140625 -1.53265625 4.32515625 -1.66015625 5.47265625 C-2.28515625 9.09765625 -2.28515625 9.09765625 -4.28515625 11.09765625 C-7.41015625 10.72265625 -7.41015625 10.72265625 -10.28515625 10.09765625 C-6.53515625 7.09765625 -6.53515625 7.09765625 -4.28515625 7.09765625 C-4.14078125 6.12828125 -3.99640625 5.15890625 -3.84765625 4.16015625 C-3.10794106 0.13281799 -3.10794106 0.13281799 0 0 Z " fill="#E78D78" transform="translate(134.28515625,40.90234375)"/>
<path d="M0 0 C0.33 0 0.66 0 1 0 C1.125 2.375 1.125 2.375 1 5 C-1 7 -1 7 -3.6015625 7.1953125 C-4.59929688 7.17210938 -5.59703125 7.14890625 -6.625 7.125 C-8.12933594 7.09792969 -8.12933594 7.09792969 -9.6640625 7.0703125 C-10.43492188 7.04710938 -11.20578125 7.02390625 -12 7 C-12 6.34 -12 5.68 -12 5 C-11.30132812 4.97421875 -10.60265625 4.9484375 -9.8828125 4.921875 C-8.97273438 4.86515625 -8.06265625 4.8084375 -7.125 4.75 C-6.22007813 4.70359375 -5.31515625 4.6571875 -4.3828125 4.609375 C-1.82889456 4.24388852 -1.82889456 4.24388852 -0.6796875 1.953125 C-0.34324219 0.98632812 -0.34324219 0.98632812 0 0 Z " fill="#4E93AD" transform="translate(64,108)"/>
<path d="M0 0 C1.62490954 -0.02698189 3.24994633 -0.04638757 4.875 -0.0625 C5.77992188 -0.07410156 6.68484375 -0.08570313 7.6171875 -0.09765625 C10 0 10 0 12 1 C12 1.66 12 2.32 12 3 C11.40832031 2.98839844 10.81664062 2.97679687 10.20703125 2.96484375 C5.99768215 2.91677614 2.1077667 2.93993117 -2 4 C-1.34 2.68 -0.68 1.36 0 0 Z " fill="#E4836C" transform="translate(132,60)"/>
<path d="M0 0 C-1.25 2 -1.25 2 -3 4 C-4.32 4 -5.64 4 -7 4 C-7.33 4.66 -7.66 5.32 -8 6 C-8.66 4.35 -9.32 2.7 -10 1 C-3.375 -1.125 -3.375 -1.125 0 0 Z " fill="#F47C5D" transform="translate(157,50)"/>
<path d="M0 0 C0.33 1.32 0.66 2.64 1 4 C-3.96993194 6.43425238 -7.34605369 7.34615998 -13 7 C-13 6.67 -13 6.34 -13 6 C-11.783125 5.7525 -10.56625 5.505 -9.3125 5.25 C-5.41640742 4.2950075 -2.95700176 2.77218915 0 0 Z " fill="#408AB3" transform="translate(96,86)"/>
<path d="M0 0 C1.23556641 0.01740234 1.23556641 0.01740234 2.49609375 0.03515625 C3.32238281 0.04417969 4.14867187 0.05320313 5 0.0625 C5.63808594 0.07410156 6.27617187 0.08570313 6.93359375 0.09765625 C6.93359375 0.75765625 6.93359375 1.41765625 6.93359375 2.09765625 C5.75796875 2.06671875 5.75796875 2.06671875 4.55859375 2.03515625 C1.95244414 1.91081562 1.95244414 1.91081562 -0.06640625 3.09765625 C-0.39640625 4.08765625 -0.72640625 5.07765625 -1.06640625 6.09765625 C-1.72640625 6.09765625 -2.38640625 6.09765625 -3.06640625 6.09765625 C-3.10912725 4.4315372 -3.10704457 2.7638274 -3.06640625 1.09765625 C-2.06640625 0.09765625 -2.06640625 0.09765625 0 0 Z " fill="#E57958" transform="translate(135.06640625,41.90234375)"/>
<path d="M0 0 C0.66 0.99 1.32 1.98 2 3 C1.01 3.33 0.02 3.66 -1 4 C-1.12375 4.721875 -1.2475 5.44375 -1.375 6.1875 C-1.9904931 8.95721894 -2.88444374 11.3970354 -4 14 C-4.99 13.34 -5.98 12.68 -7 12 C-6.0409375 10.6078125 -6.0409375 10.6078125 -5.0625 9.1875 C-2.91377907 6.15780057 -2.91377907 6.15780057 -2 3 C-1.34 3 -0.68 3 0 3 C0 2.01 0 1.02 0 0 Z " fill="#3D8BBC" transform="translate(104,73)"/>
<path d="M0 0 C1.9375 0.0625 1.9375 0.0625 4 1 C5.25 4.0625 5.25 4.0625 6 7 C1.32307692 5.52307692 1.32307692 5.52307692 -0.3125 2.875 C-0.539375 2.25625 -0.76625 1.6375 -1 1 C-0.67 0.67 -0.34 0.34 0 0 Z " fill="#E4866A" transform="translate(118,80)"/>
<path d="M0 0 C0.66 0.33 1.32 0.66 2 1 C2.125 3.875 2.125 3.875 2 7 C0 9 0 9 -2.625 9.125 C-3.40875 9.08375 -4.1925 9.0425 -5 9 C-4.0409375 8.443125 -4.0409375 8.443125 -3.0625 7.875 C-0.36141928 5.41947207 -0.31592995 3.55421195 0 0 Z " fill="#E87F62" transform="translate(145,95)"/>
<path d="M0 0 C0.33 0 0.66 0 1 0 C1.33 3.3 1.66 6.6 2 10 C2.66 10 3.32 10 4 10 C4 10.66 4 11.32 4 12 C4.66 12.33 5.32 12.66 6 13 C4.68 13 3.36 13 2 13 C0.21590198 9.93753253 -0.22880021 7.77920727 -0.125 4.25 C-0.10695313 3.45078125 -0.08890625 2.6515625 -0.0703125 1.828125 C-0.04710938 1.22484375 -0.02390625 0.6215625 0 0 Z " fill="#E57957" transform="translate(113,67)"/>
</svg>
